<?xml version="1.0" encoding="utf-8"?>
<!-- Generator: Adobe Illustrator 19.0.0, SVG Export Plug-In . SVG Version: 6.00 Build 0)  -->
<svg version="1.1" id="Vrstva_1" xmlns="http://www.w3.org/2000/svg" xmlns:xlink="http://www.w3.org/1999/xlink" x="0px" y="0px"
	 viewBox="0 -250 1000 1500" style="enable-background:new 0 -250 1000 1500;" xml:space="preserve">
<style type="text/css">
	.st0{fill:#AAAAAA;}
	.st1{fill:#3476B8;}
</style>
<g id="XMLID_38_">
	<polygon id="XMLID_45_" class="st0" points="797.4,320.6 470.6,175.5 470.6,358.3 153.9,217.7 153.9,261.5 499.9,415 499.9,232.3 
		797.4,364.2 	"/>
	<polygon id="XMLID_42_" class="st1" points="825,320.6 498.2,175.5 498.2,358.3 181.5,217.7 181.5,261.5 527.5,415 527.5,232.3 
		825,364.2 	"/>
</g>
<g id="XMLID_37_">
	<g id="XMLID_1_">
		<path id="XMLID_12_" class="st0" d="M805.8,23.8c-28.3,0-52.6-11.8-74.4-36c-18-20-32-46.2-45.7-71.4c-25.5-47.2-49.5-92-94.5-92
			s-69.1,44.6-94.5,92c-13.6,25.3-27.7,51.5-45.7,71.4c-21.7,24.2-46,36-74.4,36c-28.3,0-52.6-11.8-74.4-36
			c-18-20-32-46.2-45.7-71.4c-25.5-47.2-49.5-92-94.5-92V-206c28.3,0,52.6,11.8,74.4,36c18,20,32,46.2,45.7,71.4
			c25.5,47.2,49.5,92,94.5,92s69.1-44.6,94.5-92c13.6-25.3,27.7-51.5,45.7-71.4c21.7-24.2,46-36,74.4-36c28.3,0,52.6,11.8,74.4,36
			c18,20,32,46.2,45.7,71.4c25.5,47.2,49.5,92,94.5,92V23.8z"/>
	</g>
	<g id="XMLID_3_">
		<path id="XMLID_11_" class="st1" d="M837.7,23.8c-28.3,0-52.6-11.8-74.4-36c-18-20-32-46.2-45.7-71.4c-25.5-47.2-49.5-92-94.5-92
			s-69.1,44.6-94.5,92c-13.6,25.3-27.7,51.5-45.7,71.4c-21.7,24.2-46,36-74.4,36c-28.3,0-52.6-11.8-74.4-36
			c-18-20-32-46.2-45.7-71.4c-25.5-47.2-49.5-92-94.5-92V-206c28.3,0,52.6,11.8,74.4,36c18,20,32,46.2,45.7,71.4
			c25.5,47.2,49.5,92,94.5,92s69.1-44.6,94.5-92c13.6-25.3,27.7-51.5,45.7-71.4c21.7-24.2,46-36,74.4-36c28.3,0,52.6,11.8,74.4,36
			c18,20,32,46.2,45.7,71.4c25.5,47.2,49.5,92,94.5,92V23.8z"/>
	</g>
</g>
<g id="XMLID_39_">
	<g id="XMLID_5_">
		<polygon id="XMLID_9_" class="st0" points="797.4,791.2 672,791.2 672,608.5 490.3,608.5 490.3,791.2 260.1,791.2 260.1,608.5 
			153.9,608.5 153.9,566.7 289.4,566.7 289.4,749.5 461.1,749.5 461.1,566.7 701.2,566.7 701.2,749.5 797.4,749.5 		"/>
	</g>
	<g id="XMLID_4_">
		<polygon id="XMLID_10_" class="st1" points="825,791.2 699.6,791.2 699.6,608.5 517.9,608.5 517.9,791.2 287.7,791.2 287.7,608.5 
			181.5,608.5 181.5,566.7 316.9,566.7 316.9,749.5 488.6,749.5 488.6,566.7 728.7,566.7 728.7,749.5 825,749.5 		"/>
	</g>
</g>
<g id="XMLID_40_">
	<g id="XMLID_7_">
		<polygon id="XMLID_44_" class="st0" points="370.1,1206 143.6,983.8 167.7,954.7 370.1,1153.4 584.7,943 811.2,1165.2 
			787.1,1194.2 584.7,995.6 		"/>
	</g>
	<g id="XMLID_6_">
		<polygon id="XMLID_43_" class="st1" points="415.3,1206 188.8,983.8 212.9,954.7 415.3,1153.4 629.8,943 856.4,1165.2 
			832.3,1194.2 629.8,995.6 		"/>
	</g>
</g>
</svg>
