<?xml version="1.0" encoding="utf-8"?>
<!-- Generator: Adobe Illustrator 19.0.0, SVG Export Plug-In . SVG Version: 6.00 Build 0)  -->
<svg version="1.1" id="Vrstva_1" xmlns="http://www.w3.org/2000/svg" xmlns:xlink="http://www.w3.org/1999/xlink" x="0px" y="0px"
	 viewBox="0 0 1000 1000" style="enable-background:new 0 0 1000 1000;" xml:space="preserve">
<style type="text/css">
	.st0{fill:#AAAAAA;}
	.st1{fill:#3476B8;}
</style>
<g>
	<path class="st0" d="M460,940.5c-59.9,0-118-11.6-172.7-34.6C234.4,883.7,187,852,146.2,811.6c-40.8-40.4-72.8-87.5-95.2-140
		C27.8,617.2,16,559.5,16,500c0-59.5,11.8-117.2,35-171.6c22.4-52.5,54.4-99.6,95.2-140c40.8-40.4,88.2-72.1,141.1-94.3
		C342,71.2,400.1,59.5,460,59.5c59.9,0,118,11.6,172.7,34.6c52.9,22.2,100.3,53.9,141.1,94.3c40.8,40.4,72.8,87.5,95.2,140
		c23.2,54.4,35,112.1,35,171.6c0,59.5-11.8,117.2-35,171.6c-22.4,52.5-54.4,99.6-95.2,140c-40.8,40.4-88.2,72.1-141.1,94.3
		C578,928.8,519.9,940.5,460,940.5z M460,159.5c-189.7,0-344,152.7-344,340.5c0,187.7,154.3,340.5,344,340.5
		c189.7,0,344-152.7,344-340.5C804,312.3,649.7,159.5,460,159.5z"/>
</g>
<g>
	<path class="st1" d="M540,934.6c-59.1,0-116.4-11.5-170.4-34.1c-52.2-21.9-99-53.2-139.3-93c-40.3-39.9-71.9-86.4-94-138.1
		c-22.9-53.7-34.5-110.6-34.5-169.3c0-58.7,11.6-115.7,34.5-169.3c22.1-51.8,53.7-98.3,94-138.1c40.2-39.9,87.1-71.2,139.3-93
		c54-22.6,111.4-34.1,170.4-34.1s116.4,11.5,170.4,34.1c52.2,21.9,99,53.2,139.3,93c40.3,39.9,71.9,86.4,94,138.1
		c22.9,53.7,34.5,110.6,34.5,169.3c0,58.7-11.6,115.7-34.5,169.3c-22.1,51.8-53.7,98.3-94,138.1c-40.2,39.9-87.1,71.2-139.3,93
		C656.4,923.2,599.1,934.6,540,934.6z M540,153.7c-192.9,0-349.8,155.3-349.8,346.3S347.1,846.3,540,846.3S889.8,690.9,889.8,500
		S732.9,153.7,540,153.7z"/>
</g>
</svg>
