<?xml version="1.0" encoding="utf-8"?>
<!-- Generator: Adobe Illustrator 19.0.0, SVG Export Plug-In . SVG Version: 6.00 Build 0)  -->
<svg version="1.1" id="Vrstva_1" xmlns="http://www.w3.org/2000/svg" xmlns:xlink="http://www.w3.org/1999/xlink" x="0px" y="0px"
	 viewBox="250 251 500 500" style="enable-background:new 250 251 500 500;" xml:space="preserve">
<style type="text/css">
	.st0{fill:#E6E6E6;}
	.st1{fill:#3275B8;}
</style>
<path class="st0" d="M699.7,580.9V628c-21.7-5.4-31.2-33.9-35.1-45.3c-7.3-21.8-13.1-50.6-18.7-78.4c-4.8-24-9.8-48.7-15.6-67.8
	c-5.8-19.3-10.5-26.4-12.8-28.9c-2.2,2.5-7,9.7-12.8,28.9c-5.7,19.1-10.7,43.9-15.6,67.8c-5.6,27.8-11.4,56.6-18.7,78.4
	c-4.2,12.6-15.5,46.2-42.5,46.2c-27,0-38.2-33.5-42.5-46.2c-7.3-21.8-13.1-50.6-18.7-78.4c-4.8-24-9.8-48.7-15.6-67.8
	c-5.8-19.3-10.5-26.4-12.8-28.9c-2.2,2.5-7,9.7-12.8,28.9c-5.7,19.1-10.7,43.9-15.6,67.8c-5.6,27.8-11.4,56.6-18.7,78.4
	c-4.2,12.6-15.5,46.2-42.5,46.2c-27,0-38.2-33.5-42.5-46.2c-7.3-21.8-13.1-50.6-18.7-78.4c-4.8-24-9.8-48.7-15.6-67.8
	c-1.9-6.4-3.7-11.4-5.4-15.4V374c21.7,5.4,31.2,33.9,35.1,45.3c7.3,21.8,13.1,50.6,18.7,78.4c4.8,24,9.8,48.7,15.6,67.8
	c5.8,19.3,10.5,26.4,12.8,28.9c2.2-2.5,7-9.7,12.8-28.9c5.7-19.1,10.7-43.9,15.6-67.8c5.6-27.8,11.4-56.6,18.7-78.4
	c4.2-12.6,15.5-46.2,42.5-46.2c27,0,38.2,33.5,42.5,46.2c7.3,21.8,13.1,50.6,18.7,78.4c4.8,24,9.8,48.7,15.6,67.8
	c5.8,19.3,10.5,26.4,12.8,28.9c2.2-2.5,7-9.7,12.8-28.9c5.7-19.1,10.7-43.9,15.6-67.8c5.6-27.8,11.4-56.6,18.7-78.4
	c4.2-12.6,15.5-46.2,42.5-46.2s38.2,33.5,42.5,46.2c7.3,21.8,13.1,50.6,18.7,78.4c4.8,24,9.8,48.7,15.6,67.8
	C696.3,571.9,698.1,576.9,699.7,580.9z"/>
<path class="st1" d="M733.1,580.9V628c-21.7-5.4-31.2-33.9-35.1-45.3c-7.3-21.8-13.1-50.6-18.7-78.4c-4.8-24-9.8-48.7-15.6-67.8
	c-5.8-19.3-10.5-26.4-12.8-28.9c-2.2,2.5-7,9.7-12.8,28.9c-5.7,19.1-10.7,43.9-15.6,67.8c-5.6,27.8-11.4,56.6-18.7,78.4
	c-4.2,12.6-15.5,46.2-42.5,46.2s-38.2-33.5-42.5-46.2c-7.3-21.8-13.1-50.6-18.7-78.4c-4.8-24-9.8-48.7-15.6-67.8
	c-5.8-19.3-10.5-26.4-12.8-28.9c-2.2,2.5-7,9.7-12.8,28.9c-5.7,19.1-10.7,43.9-15.6,67.8c-5.6,27.8-11.4,56.6-18.7,78.4
	c-4.2,12.6-15.5,46.2-42.5,46.2c-27,0-38.2-33.5-42.5-46.2c-7.3-21.8-13.1-50.6-18.7-78.4c-4.8-24-9.8-48.7-15.6-67.8
	c-1.9-6.4-3.7-11.4-5.4-15.4V374c21.7,5.4,31.2,33.9,35.1,45.3c7.3,21.8,13.1,50.6,18.7,78.4c4.8,24,9.8,48.7,15.6,67.8
	c5.8,19.3,10.5,26.4,12.8,28.9c2.2-2.5,7-9.7,12.8-28.9c5.7-19.1,10.7-43.9,15.6-67.8c5.6-27.8,11.4-56.6,18.7-78.4
	c4.2-12.6,15.5-46.2,42.5-46.2c27,0,38.2,33.5,42.5,46.2c7.3,21.8,13.1,50.6,18.7,78.4c4.8,24,9.8,48.7,15.6,67.8
	c5.8,19.3,10.5,26.4,12.8,28.9c2.2-2.5,7-9.7,12.8-28.9c5.7-19.1,10.7-43.9,15.6-67.8c5.6-27.8,11.4-56.6,18.7-78.4
	c4.2-12.6,15.5-46.2,42.5-46.2c27,0,38.2,33.5,42.5,46.2c7.3,21.8,13.1,50.6,18.7,78.4c4.8,24,9.8,48.7,15.6,67.8
	C729.6,571.9,731.4,576.9,733.1,580.9z"/>
</svg>
